<svg width="40" height="40" viewBox="0 0 40 40" fill="none" xmlns="http://www.w3.org/2000/svg">
<path fill-rule="evenodd" clip-rule="evenodd" d="M19.9934 0C15.2453 0.00254019 10.6529 1.73656 7.03742 4.89201C3.4219 8.04745 1.019 12.4186 0.258386 17.2237C-0.50223 22.0289 0.429027 26.9548 2.88566 31.1205C5.34229 35.2863 9.16409 38.4204 13.6677 39.9623C14.6612 40.1525 15.0355 39.5175 15.0355 38.9776C15.0355 38.4377 15.0156 36.8724 15.009 35.161C9.44502 36.4004 8.26931 32.74 8.26931 32.74C7.36185 30.3631 6.05034 29.7383 6.05034 29.7383C4.23543 28.4684 6.18614 28.4921 6.18614 28.4921C8.19645 28.6382 9.25295 30.6076 9.25295 30.6076C11.0347 33.7417 13.9326 32.8351 15.0719 32.3054C15.2508 30.9777 15.7707 30.0745 16.3437 29.5617C11.8991 29.0456 7.22937 27.2867 7.22937 19.4294C7.20183 17.3916 7.93936 15.421 9.28937 13.9252C9.08404 13.4091 8.39847 11.3242 9.48476 8.4923C9.48476 8.4923 11.1639 7.94222 14.9858 10.5942C18.264 9.67502 21.7228 9.67502 25.001 10.5942C28.8196 7.94222 30.4954 8.4923 30.4954 8.4923C31.585 11.3174 30.8994 13.4023 30.6941 13.9252C32.0484 15.4212 32.7874 17.3953 32.7574 19.4362C32.7574 27.3105 28.0777 29.0456 23.6265 29.5516C24.3419 30.1899 24.9811 31.4361 24.9811 33.3512C24.9811 36.0948 24.9579 38.3019 24.9579 38.9776C24.9579 39.5243 25.3189 40.1627 26.3323 39.9623C30.8364 38.4202 34.6586 35.2856 37.1152 31.1191C39.5718 26.9526 40.5026 22.026 39.7411 17.2204C38.9796 12.4148 36.5755 8.04361 32.9588 4.88871C29.3421 1.73381 24.7486 0.000930091 20 0H19.9934Z" fill="white"/>
</svg>
